<?xml version="1.0" standalone="no"?>
<!DOCTYPE svg PUBLIC "-//W3C//DTD SVG 20010904//EN"
 "http://www.w3.org/TR/2001/REC-SVG-20010904/DTD/svg10.dtd">
<svg version="1.0" xmlns="http://www.w3.org/2000/svg"
 width="50.000000pt" height="50.000000pt" viewBox="0 0 50.000000 50.000000"
 preserveAspectRatio="xMidYMid meet">

<g transform="translate(0.000000,50.000000) scale(0.100000,-0.100000)"
fill="#000000" stroke="none">
<path d="M95 416 c-33 -33 -40 -67 -21 -105 21 -40 49 -54 98 -49 l41 4 61
-92 c44 -66 66 -90 75 -85 10 7 -2 31 -47 98 -60 89 -61 91 -55 146 5 50 3 58
-20 81 -35 35 -98 36 -132 2z m116 -14 c15 -13 22 -30 22 -52 0 -63 -80 -94
-123 -48 -62 66 30 157 101 100z"/>
</g>
</svg>
